<svg xmlns:mydata="http://www.w3.org/2000/svg" mydata:contrastcolor="11111f" mydata:template="Contrast" mydata:presentation="2.5" mydata:layouttype="undefined" mydata:specialfontid="undefined" mydata:id1="409" mydata:id2="911" mydata:companyname="Sorteos" mydata:companytagline="" version="1.1" xmlns="http://www.w3.org/2000/svg" xmlns:xlink="http://www.w3.org/1999/xlink" viewBox="0 100 550 270"><g fill="#ff8200" fill-rule="none" stroke="none" stroke-width="1" stroke-linecap="butt" stroke-linejoin="miter" stroke-miterlimit="10" stroke-dasharray="" stroke-dashoffset="0" font-family="none" font-weight="none" font-size="none" text-anchor="none" style="mix-blend-mode: normal"><g data-paper-data="{&quot;isGlobalGroup&quot;:true,&quot;bounds&quot;:{&quot;x&quot;:88.2052187778271,&quot;y&quot;:115,&quot;width&quot;:373.5895624443458,&quot;height&quot;:240}}"><g data-paper-data="{&quot;isPrimaryText&quot;:true}" fill-rule="nonzero"><path d="M88.20522,311.62934c0,-11.63072 8.7763,-19.46932 22.06855,-19.46932c6.17834,0 14.10257,2.55578 19.5558,6.30487c0.80904,0.51124 1.06466,1.02248 0.68165,1.53372l-5.49584,12.31238c-0.29822,0.93813 -0.80946,1.19375 -1.57632,0.72426c-4.77115,-2.72662 -8.8615,-4.25991 -12.26977,-4.55814c-2.68401,0.0426 -4.47335,1.3207 -4.47335,3.02484c0,1.49112 2.12974,2.98224 6.39008,4.38815c4.26034,1.40549 8.22245,3.45045 11.88634,6.13446c3.70649,2.68401 6.43311,7.58425 6.43311,13.5909c0.0426,11.63072 -9.03149,19.38454 -22.45155,19.38454c-7.32778,0 -15.08117,-2.30058 -19.34151,-5.75146c-0.76686,-0.59602 -1.02248,-1.10726 -0.72426,-1.5759l5.49584,-12.31323c0.2978,-0.93727 0.80904,-1.15029 1.5759,-0.68165c4.43075,2.5136 8.4785,3.87776 12.14239,4.17513c2.76922,0 4.60116,-1.44851 4.60116,-3.15265c-0.0426,-1.49112 -2.17277,-2.98224 -6.43268,-4.47335c-4.26034,-1.44851 -8.17985,-3.49348 -11.71593,-6.09186c-3.57911,-2.68486 -6.34833,-7.58425 -6.34833,-13.50612z" data-paper-data="{&quot;glyphName&quot;:&quot;S&quot;,&quot;glyphIndex&quot;:0,&quot;firstGlyphOfWord&quot;:true,&quot;word&quot;:1}"></path><path d="M197.39809,323.51568c0,18.9159 -12.26935,31.31263 -30.92962,31.39783c-18.74548,0.08521 -31.01568,-12.568 -31.01568,-31.44129c0,-18.87329 12.22759,-31.39826 31.01568,-31.39826c18.66028,0 30.92962,12.568 30.92962,31.44129zM178.39699,323.55786c0,-7.92423 -4.55856,-13.8461 -11.97155,-13.8461c-7.11476,0 -11.92894,5.58062 -11.92894,13.84567c0,8.26505 4.81418,13.8887 11.92894,13.8887c7.11476,0 11.97197,-5.62365 11.97197,-13.8887z" data-paper-data="{&quot;glyphName&quot;:&quot;O&quot;,&quot;glyphIndex&quot;:1,&quot;word&quot;:1}"></path><path d="M251.76042,353.67844h-18.70331c-0.93727,0 -1.61893,-0.46864 -2.00278,-1.40591l-9.07452,-19.0011h-1.02248v19.17109c0,0.51124 -0.68165,1.2355 -1.40591,1.2355h-15.37982c-0.68251,0 -1.27853,-0.59602 -1.27853,-1.2355v-57.64237c0,-0.68165 0.59602,-1.36331 1.27853,-1.32113h23.04843c13.50484,0 22.32374,7.83987 22.32374,19.72621c0,6.94435 -4.26034,13.8887 -10.69345,16.65792l13.8461,22.40895c0.46864,0.72426 -0.12824,1.40549 -0.93727,1.40549zM220.95691,309.2001v9.24493h5.11198c3.02484,0 4.98459,-1.87455 4.98459,-4.64377c0,-2.76879 -1.95976,-4.64334 -4.98459,-4.60074h-5.11198z" data-paper-data="{&quot;glyphName&quot;:&quot;R&quot;,&quot;glyphIndex&quot;:2,&quot;word&quot;:1}"></path><path d="M254.10361,293.47988h46.90589c0.80946,0 1.36331,0.59687 1.2355,1.2355l-1.32028,13.25008c-0.12781,0.80946 -0.55384,1.2355 -1.36331,1.2355h-12.9936v43.242c0,0.55384 -0.55384,1.23507 -1.2355,1.23507h-15.46502c-0.68165,0 -1.27853,-0.59602 -1.27853,-1.2355v-43.242h-14.48472c-0.55384,0 -1.23507,-0.55384 -1.23507,-1.2355v-13.16444c0,-0.68165 0.68123,-1.32113 1.23507,-1.32113z" data-paper-data="{&quot;glyphName&quot;:&quot;T&quot;,&quot;glyphIndex&quot;:3,&quot;word&quot;:1}"></path><path d="M323.37584,330.54524v7.41299h23.81529c0.8951,0 1.32113,0.383 1.27853,1.14987v13.33486c0,0.55384 -0.59645,1.23507 -1.2781,1.23507h-40.60102c-0.72426,0 -1.15029,-0.42561 -1.36416,-1.32028v-57.64279c0,-0.80904 0.38386,-1.23592 1.19332,-1.23592h39.70592c0.80946,0 1.40591,0.59687 1.40591,1.2355v13.16444c0,0.89552 -0.46864,1.32156 -1.40676,1.32156h-22.7502v6.85872h18.49072c0.68165,0 1.2355,0.59687 1.10769,1.15072l-1.19289,12.22632c-0.12738,0.76686 -0.59687,1.15072 -1.49154,1.10811h-16.91354z" data-paper-data="{&quot;glyphName&quot;:&quot;E&quot;,&quot;glyphIndex&quot;:4,&quot;word&quot;:1}"></path><path d="M414.50489,323.51568c0,18.9159 -12.26935,31.31263 -30.92962,31.39783c-18.74548,0.08521 -31.01568,-12.568 -31.01568,-31.44129c0,-18.87329 12.22759,-31.39826 31.01568,-31.39826c18.66028,0 30.92962,12.568 30.92962,31.44129zM395.50378,323.55786c0,-7.92423 -4.55856,-13.8461 -11.97155,-13.8461c-7.11476,0 -11.92894,5.58062 -11.92894,13.84567c0,8.26505 4.81418,13.8887 11.92894,13.8887c7.11476,0 11.97197,-5.62365 11.97197,-13.8887z" data-paper-data="{&quot;glyphName&quot;:&quot;O&quot;,&quot;glyphIndex&quot;:5,&quot;word&quot;:1}"></path><path d="M418.59438,311.62934c0,-11.63072 8.7763,-19.46932 22.06855,-19.46932c6.17834,0 14.10257,2.55578 19.5558,6.30487c0.80904,0.51124 1.06466,1.02248 0.68165,1.53372l-5.49584,12.31238c-0.29822,0.93813 -0.80946,1.19375 -1.57632,0.72426c-4.77115,-2.72662 -8.8615,-4.25991 -12.26977,-4.55814c-2.68401,0.0426 -4.47335,1.3207 -4.47335,3.02484c0,1.49112 2.12974,2.98224 6.39008,4.38815c4.26034,1.40549 8.22245,3.45045 11.88634,6.13446c3.70649,2.68401 6.43311,7.58425 6.43311,13.5909c0.0426,11.63072 -9.03149,19.38454 -22.45155,19.38454c-7.32778,0 -15.08117,-2.30058 -19.34151,-5.75146c-0.76686,-0.59602 -1.02248,-1.10726 -0.72426,-1.5759l5.49584,-12.31323c0.2978,-0.93727 0.80904,-1.15029 1.5759,-0.68165c4.43075,2.5136 8.4785,3.87776 12.14239,4.17513c2.76922,0 4.60116,-1.44851 4.60116,-3.15265c-0.0426,-1.49112 -2.17277,-2.98224 -6.43268,-4.47335c-4.26034,-1.44851 -8.17985,-3.49348 -11.71593,-6.09186c-3.57911,-2.68486 -6.34833,-7.58425 -6.34833,-13.50612z" data-paper-data="{&quot;glyphName&quot;:&quot;S&quot;,&quot;glyphIndex&quot;:6,&quot;lastGlyphOfWord&quot;:true,&quot;word&quot;:1}"></path></g><g data-paper-data="{&quot;isIcon&quot;:&quot;true&quot;,&quot;iconType&quot;:&quot;icon&quot;,&quot;rawIconId&quot;:&quot;1861811&quot;,&quot;selectedEffects&quot;:{&quot;container&quot;:&quot;&quot;,&quot;transformation&quot;:&quot;&quot;,&quot;pattern&quot;:&quot;&quot;},&quot;isDetailed&quot;:false,&quot;iconStyle&quot;:&quot;standalone&quot;,&quot;bounds&quot;:{&quot;x&quot;:202.11517201932776,&quot;y&quot;:115,&quot;width&quot;:145.76965596134448,&quot;height&quot;:145.7696158746886},&quot;fillRule&quot;:&quot;evenodd&quot;,&quot;suitableAsStandaloneIcon&quot;:true}" fill-rule="evenodd"><path d="M296.39669,123.84903l42.63907,42.63907c11.79876,11.79795 11.79876,30.99467 0,42.79342l-42.63907,42.63907c-5.89946,5.8993 -13.64809,8.84903 -21.39671,8.84903c-7.74863,0 -15.49806,-2.94973 -21.39671,-8.84903l-42.63907,-42.63907c-11.79871,-11.79876 -11.79871,-30.99548 0,-42.79342l42.63907,-42.63907c11.79714,-11.79871 30.99467,-11.79871 42.79342,0zM274.99999,120.71808c-6.5815,0 -12.74966,2.54334 -17.36732,7.16035l-14.6837,14.6837c9.29314,-1.51908 19.16077,1.26836 26.31303,8.42079l5.73765,5.73749l0.00032,-0.00032l27.13405,27.13534l5.73846,-5.73797c4.61782,-4.61765 7.16037,-10.78582 7.16037,-17.36732c0,-6.5815 -2.54254,-12.74869 -7.16037,-17.36651l-15.50519,-15.50519c-4.61765,-4.61701 -10.78582,-7.16035 -17.36732,-7.16035zM207.83325,187.88481c0,6.5815 2.54334,12.74966 7.16035,17.36732l14.70378,14.70378c-0.26255,-1.61869 -0.42856,-3.26297 -0.42856,-4.93722c0,-8.10334 3.13583,-15.70247 8.82927,-21.39509l5.73765,-5.7383l-0.00049,-0.00049l27.13501,-27.13501l-5.73765,-5.73749c-9.57642,-9.57496 -25.15724,-9.57658 -34.73382,0l-15.50519,15.50519c-4.61701,4.61765 -7.16035,10.78582 -7.16035,17.36732zM319.50118,220.75732l15.50519,-15.50519c4.61765,-4.61765 7.16037,-10.78582 7.16037,-17.36732c0,-6.5815 -2.54271,-12.74966 -7.16037,-17.36732l-14.70281,-14.70281c0.26239,1.6182 0.4284,3.26184 0.4284,4.93543c0,8.10414 -3.13583,15.70328 -8.83008,21.39671l-7.75332,7.75268l-25.11918,25.11918l5.73879,5.73862c4.61765,4.61782 10.7842,7.16037 17.36569,7.16037c6.5815,0 12.7495,-2.54254 17.36732,-7.16037zM251.8955,187.88481l23.10448,23.10448l23.10448,-23.10448l-23.10448,-23.10448zM274.99999,255.05156c6.5815,0 12.74966,-2.54271 17.36732,-7.16037l14.70281,-14.70281c-1.61836,0.26239 -3.26232,0.4284 -4.93624,0.4284c-8.10334,0 -15.70247,-3.13583 -21.39509,-8.83008l-5.73879,-5.73862l-27.13485,-27.13356l-5.73765,5.73846c-4.61701,4.61765 -7.15956,10.7842 -7.15956,17.36569c0,6.5815 2.54254,12.7495 7.15956,17.36732l15.50519,15.50519c4.61765,4.61765 10.78582,7.16037 17.36732,7.16037z" data-paper-data="{&quot;isPathIcon&quot;:true}"></path></g></g></g><g class="watermark-group" style="opacity:0.040000010281801224"><path class="watermark-path" d="M129.52,370.3a11.88,11.88,0,0,1,2.58,5.58,12,12,0,0,1,.11,3,11.81,11.81,0,0,1-.64,2.93,12.34,12.34,0,0,1-1.41,2.72,11.65,11.65,0,0,1-2.13,2.32,12,12,0,0,1-2.64,1.69,13,13,0,0,1-2.91.9,12.47,12.47,0,0,1-3,.12,12.17,12.17,0,0,1-2.93-.64,11.8,11.8,0,0,1-2.72-1.38,12.19,12.19,0,0,1-4-4.79,11.85,11.85,0,0,1-.89-2.92,12.14,12.14,0,0,1-.13-3,11.54,11.54,0,0,1,.64-2.92,11.67,11.67,0,0,1,3.5-5,11.44,11.44,0,0,1,2.67-1.69,11.64,11.64,0,0,1,2.92-.91,10.71,10.71,0,0,1,3-.12,11.68,11.68,0,0,1,5.66,2,11.7,11.7,0,0,1,2.34,2.12m-1.4,8.76a13,13,0,0,1-1.22,2.32,9.68,9.68,0,0,1-1.81,2,7.44,7.44,0,0,1-2.38,1.37,6.17,6.17,0,0,1-5.11-.46,8.73,8.73,0,0,1-3.85-4.58,6.69,6.69,0,0,1-.34-2.66,6.09,6.09,0,0,1,.77-2.47,7.15,7.15,0,0,1,1.75-2.11,9.58,9.58,0,0,1,1.09-.81,8.23,8.23,0,0,1,1.12-.63,8.14,8.14,0,0,1,1.19-.46,12.71,12.71,0,0,1,1.32-.37l2,2.38a12.83,12.83,0,0,0-1.56.17,7.86,7.86,0,0,0-1.23.32,4.5,4.5,0,0,0-1,.49,6.41,6.41,0,0,0-.93.67,4.49,4.49,0,0,0-1.15,1.39,3.87,3.87,0,0,0-.45,1.58,4.12,4.12,0,0,0,.26,1.63,6.11,6.11,0,0,0,2.36,2.82,4.43,4.43,0,0,0,1.57.53,3.91,3.91,0,0,0,1.62-.17,4.71,4.71,0,0,0,1.57-.89,10.5,10.5,0,0,0,.83-.79,5.71,5.71,0,0,0,.65-.93,10.13,10.13,0,0,0,.54-1.14,12.24,12.24,0,0,0,.44-1.49l2,2.33m-14.46,4.55a8.86,8.86,0,0,0,2.78,2.22,9,9,0,0,0,3.29.94,9.15,9.15,0,0,0,3.39-.37,8.68,8.68,0,0,0,3.11-1.69,8.8,8.8,0,0,0,2.22-2.78,9.15,9.15,0,0,0,1-3.29,8.95,8.95,0,0,0-4.83-8.76,9,9,0,0,0-6.73-.57,9,9,0,0,0-5.33,4.47,8.94,8.94,0,0,0-.57,6.71,8.76,8.76,0,0,0,1.7,3.12"></path><path class="watermark-path" d="M147,349c-.48.12-1.09.31-1.82.57a24.37,24.37,0,0,0-2.4,1A28.35,28.35,0,0,0,140,352a20.72,20.72,0,0,0-2.71,1.94c-.7.59-1.28,1.11-1.74,1.57a15.07,15.07,0,0,0-1.1,1.22,4.09,4.09,0,0,0-.59.92,2.32,2.32,0,0,0-.22.64,1.16,1.16,0,0,0,0,.47,1.83,1.83,0,0,0,.18.29,1.15,1.15,0,0,0,1,.37,5.54,5.54,0,0,0,1.51-.38q.87-.35,1.95-.9l2.26-1.18q1.2-.65,2.49-1.29c.87-.44,1.73-.83,2.59-1.17a18.94,18.94,0,0,1,2.6-.81,9.27,9.27,0,0,1,2.46-.29,6.25,6.25,0,0,1,2.24.49,5.12,5.12,0,0,1,1.89,1.47,6.35,6.35,0,0,1,1.41,2.61,6,6,0,0,1,.09,2.6,8.3,8.3,0,0,1-.9,2.52,17.79,17.79,0,0,1-1.62,2.37,23.92,23.92,0,0,1-2,2.15c-.72.67-1.41,1.29-2.09,1.87a33.79,33.79,0,0,1-5.33,3.7,32.29,32.29,0,0,1-4.91,2.28l-3.61-4.3a21.38,21.38,0,0,0,5.39-1.87,27.2,27.2,0,0,0,5.4-3.56,21.59,21.59,0,0,0,2.38-2.27,8.67,8.67,0,0,0,1.18-1.7,2.32,2.32,0,0,0,.27-1.19,1.34,1.34,0,0,0-.28-.74,1.21,1.21,0,0,0-1-.42,4.32,4.32,0,0,0-1.55.34,15.77,15.77,0,0,0-2,.88c-.72.37-1.48.77-2.27,1.21l-2.45,1.3c-.85.45-1.7.85-2.56,1.21a22.37,22.37,0,0,1-2.54.86,10,10,0,0,1-2.43.32,5.76,5.76,0,0,1-2.2-.45,5,5,0,0,1-1.89-1.45,6.12,6.12,0,0,1-1.31-2.41,6,6,0,0,1-.1-2.41,8.28,8.28,0,0,1,.81-2.38,14.06,14.06,0,0,1,1.49-2.24,22.37,22.37,0,0,1,1.85-2.05q1-1,2-1.77c.7-.59,1.44-1.15,2.23-1.7s1.62-1.06,2.44-1.53,1.63-.91,2.43-1.3,1.58-.75,2.3-1L147,349"></path><path class="watermark-path" d="M186.76,337.57l-10.6-12.63,3.92,18.24-4.66,3.91-17.27-7,10.6,12.63-4.86,4.07-15.09-18,6.59-5.54,18.69,7.52-4.15-19.71,6.57-5.52,15.09,18-4.83,4.05"></path><path class="watermark-path" d="M208.84,313.24l-10,8.42,1.16,4.82L194.56,331l-5.68-25.89,5.42-4.55,24.51,10.09-5.42,4.55-4.55-2m-11.23,3.45,6.57-5.52-8.83-3.87,2.26,9.39"></path><path class="watermark-path" d="M227.49,281.38c-.48.12-1.09.31-1.82.57a24.37,24.37,0,0,0-2.4,1,26.11,26.11,0,0,0-2.7,1.47,20.72,20.72,0,0,0-2.71,1.94c-.7.59-1.28,1.11-1.74,1.57a13.39,13.39,0,0,0-1.1,1.22,4.29,4.29,0,0,0-.59.91,2.48,2.48,0,0,0-.22.65,1.16,1.16,0,0,0,0,.47,1.83,1.83,0,0,0,.18.29,1.15,1.15,0,0,0,1,.37,5.54,5.54,0,0,0,1.51-.38q.87-.34,2-.9l2.26-1.18q1.2-.64,2.49-1.29c.87-.44,1.73-.83,2.59-1.17a18.94,18.94,0,0,1,2.6-.81,9.27,9.27,0,0,1,2.46-.29,6.08,6.08,0,0,1,2.24.49,5.09,5.09,0,0,1,1.89,1.46,6.47,6.47,0,0,1,1.41,2.61,6.07,6.07,0,0,1,.09,2.61,8.3,8.3,0,0,1-.9,2.52,16.32,16.32,0,0,1-1.63,2.36,21.41,21.41,0,0,1-2,2.16c-.72.67-1.41,1.29-2.1,1.86a33.36,33.36,0,0,1-5.32,3.71,31.92,31.92,0,0,1-4.92,2.28l-3.6-4.3a21.38,21.38,0,0,0,5.39-1.87,27.2,27.2,0,0,0,5.4-3.56,21.59,21.59,0,0,0,2.38-2.27,8.67,8.67,0,0,0,1.18-1.7A2.32,2.32,0,0,0,231,293a1.34,1.34,0,0,0-.28-.74,1.21,1.21,0,0,0-1-.42,4.32,4.32,0,0,0-1.55.34,16.54,16.54,0,0,0-2,.88c-.71.37-1.47.77-2.26,1.21l-2.46,1.3c-.84.44-1.7.85-2.55,1.21a24.53,24.53,0,0,1-2.54.86A10,10,0,0,1,214,298a5.76,5.76,0,0,1-2.2-.45,5,5,0,0,1-1.89-1.45,6.12,6.12,0,0,1-1.31-2.41,5.78,5.78,0,0,1-.1-2.41,8,8,0,0,1,.81-2.38,14.61,14.61,0,0,1,1.49-2.25,22.26,22.26,0,0,1,1.85-2q1-1,2-1.77c.7-.59,1.44-1.15,2.23-1.7s1.62-1.06,2.44-1.53,1.63-.91,2.43-1.31,1.58-.74,2.3-1l3.5,4.16"></path><path class="watermark-path" d="M261.64,274.74l-6.29-7.5L243,277.61l6.3,7.5-4.86,4.07-15.09-18,4.85-4.08,5.49,6.55L252,263.3l-5.49-6.55,4.86-4.07,15.09,18-4.86,4.08"></path><path class="watermark-path" d="M272.18,265.9l-15.09-18,4.86-4.08,15.09,18-4.86,4.08"></path><path class="watermark-path" d="M299.65,242.85l-22.51-2.18L287.51,253l-4.85,4.08-15.1-18,5.28-4.43,22.56,2.22L285,224.5l4.83-4.06,15.09,18-5.26,4.42"></path><path class="watermark-path" d="M306.68,205.52a31.88,31.88,0,0,1,5.29-3.66,34.48,34.48,0,0,1,5.14-2.35l3.69,4.39a20.77,20.77,0,0,0-2.37.61,20.47,20.47,0,0,0-2.61,1,25.12,25.12,0,0,0-2.76,1.49,23.9,23.9,0,0,0-2.8,2,20.42,20.42,0,0,0-2.8,2.77,12.77,12.77,0,0,0-1.64,2.52,7,7,0,0,0-.68,2.24,6,6,0,0,0,.66,3.64,8.16,8.16,0,0,0,.94,1.38,9.12,9.12,0,0,0,1.08,1.07,6.39,6.39,0,0,0,1.47.91,6.73,6.73,0,0,0,1.88.48,6.54,6.54,0,0,0,2.28-.18,11.67,11.67,0,0,0,2.74-1.07,19.38,19.38,0,0,0,3.18-2.22c.57-.48,1.06-.92,1.46-1.31a14.57,14.57,0,0,0,1-1.13,11.46,11.46,0,0,0,.81-1.05l.74-1.09-1.82-2.17-5.45,4.57-3.31-3.94,10.31-8.65,7.71,9.19a29,29,0,0,1-1.67,2.43q-1,1.26-2.1,2.52c-.74.84-1.5,1.65-2.3,2.44s-1.58,1.5-2.33,2.14a31,31,0,0,1-3.59,2.61,22.55,22.55,0,0,1-3.64,1.83,15.64,15.64,0,0,1-3.63.89,10.72,10.72,0,0,1-3.49-.15,10.45,10.45,0,0,1-3.28-1.33,12.54,12.54,0,0,1-3-2.67,12,12,0,0,1-2.08-3.44,10.45,10.45,0,0,1-.71-3.5,11.14,11.14,0,0,1,.51-3.51,15.72,15.72,0,0,1,1.56-3.43,21.62,21.62,0,0,1,2.42-3.28,30.3,30.3,0,0,1,3.15-3"></path><path class="watermark-path" d="M336.91,211.59l-15.1-18,4.86-4.08,11.79,14,13.13-11,3.31,3.94-18,15.1"></path><path class="watermark-path" d="M374.54,164.71a12.28,12.28,0,0,1,2.59,4.81,10.44,10.44,0,0,1,0,5,14.62,14.62,0,0,1-2.33,5,25.55,25.55,0,0,1-4.56,4.85,26.07,26.07,0,0,1-5.6,3.67,14.79,14.79,0,0,1-5.38,1.43,10.43,10.43,0,0,1-4.94-.89,13.24,13.24,0,0,1-6.87-8.18,10.48,10.48,0,0,1,0-5,14.51,14.51,0,0,1,2.36-5,25.23,25.23,0,0,1,4.57-4.89,25,25,0,0,1,5.59-3.64,14.45,14.45,0,0,1,5.35-1.43,10.31,10.31,0,0,1,4.93.92,12.22,12.22,0,0,1,4.28,3.38m-4.91,4.11a8.36,8.36,0,0,0-2-1.72,5.5,5.5,0,0,0-2.65-.85,7.72,7.72,0,0,0-3.32.57,14.49,14.49,0,0,0-4,2.52,16.72,16.72,0,0,0-2.38,2.4,10.15,10.15,0,0,0-1.39,2.24,6.71,6.71,0,0,0-.56,2.1,5.69,5.69,0,0,0,.1,1.9,6.21,6.21,0,0,0,.61,1.69,9.85,9.85,0,0,0,1,1.44,10.48,10.48,0,0,0,1.26,1.23,6.67,6.67,0,0,0,1.57.92,6.1,6.1,0,0,0,1.85.41,6.8,6.8,0,0,0,2.15-.2,11.06,11.06,0,0,0,2.45-1,17.67,17.67,0,0,0,2.77-1.94,14.39,14.39,0,0,0,3.18-3.52,7.74,7.74,0,0,0,1.14-3.17,5.54,5.54,0,0,0-.37-2.74,8.52,8.52,0,0,0-1.36-2.3"></path><path class="watermark-path" d="M382.66,141.76A32.3,32.3,0,0,1,388,138.1a34.12,34.12,0,0,1,5.15-2.35l3.69,4.4a19.62,19.62,0,0,0-2.37.6,22.08,22.08,0,0,0-2.61,1,26,26,0,0,0-2.77,1.49,23.9,23.9,0,0,0-2.8,2,21,21,0,0,0-2.8,2.78,13.19,13.19,0,0,0-1.64,2.51,7.29,7.29,0,0,0-.68,2.24,6.36,6.36,0,0,0,.06,2,5.8,5.8,0,0,0,.61,1.68,8.12,8.12,0,0,0,.93,1.38,9.16,9.16,0,0,0,1.08,1.08,6.56,6.56,0,0,0,1.48.9,6,6,0,0,0,1.87.48,6.76,6.76,0,0,0,2.28-.17,12,12,0,0,0,2.74-1.08,18.57,18.57,0,0,0,3.18-2.22c.58-.48,1.06-.92,1.46-1.31s.75-.77,1.05-1.12.57-.72.81-1.06l.73-1.09-1.82-2.17-5.45,4.57-3.3-3.94,10.3-8.65,7.71,9.19a29,29,0,0,1-1.67,2.43q-1,1.26-2.1,2.52c-.73.84-1.5,1.66-2.3,2.44s-1.57,1.5-2.33,2.14a31,31,0,0,1-3.59,2.61,22.15,22.15,0,0,1-3.64,1.83,15.56,15.56,0,0,1-3.62.89,11,11,0,0,1-3.49-.14,10.84,10.84,0,0,1-3.28-1.33,12.82,12.82,0,0,1-3-2.68,12.12,12.12,0,0,1-2.08-3.43A10.71,10.71,0,0,1,375,155a11.18,11.18,0,0,1,.51-3.51,15.51,15.51,0,0,1,1.57-3.43,21.44,21.44,0,0,1,2.42-3.28,30.19,30.19,0,0,1,3.14-3"></path><path class="watermark-path" d="M428.63,119.31a12.26,12.26,0,0,1,2.59,4.82,10.44,10.44,0,0,1,0,5,14.53,14.53,0,0,1-2.34,5,25.29,25.29,0,0,1-4.56,4.86,26,26,0,0,1-5.59,3.67,14.84,14.84,0,0,1-5.38,1.43,10.61,10.61,0,0,1-4.95-.89,12.15,12.15,0,0,1-4.3-3.37,12,12,0,0,1-2.56-4.81,10.48,10.48,0,0,1,0-5,14.39,14.39,0,0,1,2.35-5,27.89,27.89,0,0,1,10.16-8.53,14.49,14.49,0,0,1,5.36-1.43,10.27,10.27,0,0,1,4.92.92,12.21,12.21,0,0,1,4.28,3.37m-4.91,4.12a8.17,8.17,0,0,0-2-1.72,5.58,5.58,0,0,0-2.65-.86,7.86,7.86,0,0,0-3.31.58,14.49,14.49,0,0,0-4,2.52,16.21,16.21,0,0,0-2.38,2.4,9.85,9.85,0,0,0-1.4,2.24,7,7,0,0,0-.56,2.1,6,6,0,0,0,.1,1.9,6.23,6.23,0,0,0,.62,1.69,8.49,8.49,0,0,0,1,1.44,9.18,9.18,0,0,0,1.26,1.23,6.67,6.67,0,0,0,1.57.92,6,6,0,0,0,1.84.41,6.86,6.86,0,0,0,2.16-.2,11.26,11.26,0,0,0,2.45-1,17.62,17.62,0,0,0,2.76-1.94,14.67,14.67,0,0,0,3.19-3.52,7.71,7.71,0,0,0,1.13-3.17,5.53,5.53,0,0,0-.36-2.74,8.55,8.55,0,0,0-1.37-2.3"></path></g></svg>
